<svg width="64" height="64" version="1.1" id="svg181" xmlns="http://www.w3.org/2000/svg"><defs id="defs130"><style id="style128">.cls-1{fill:#f0f4f7}.cls-2{fill:#e0e9ee}.cls-3{fill:#748a95}.cls-4{fill:#617880}</style></defs><g id="Window"><path class="cls-1" d="M22.29 16.31V14a4.91 4.91 0 011.79-3.66 14.42 14.42 0 0115.84 0A4.91 4.91 0 0141.71 14v10.56h-18.2z" id="path84242-4"/><path class="cls-2" d="M32 8c-.45 0-.89 0-1.33.06a14.31 14.31 0 016.59 2.31A4.9 4.9 0 0139 14v10.56h2.67V14a4.91 4.91 0 00-1.79-3.66A14.33 14.33 0 0032 8z" id="path560812"/><path class="cls-3" d="M37.2 12.75A12.35 12.35 0 0144.36 24v22.8L32 49.24l-12.36-2.47V24A12.33 12.33 0 0132 11.62a12 12 0 012 .16l1.54 1.6z" id="rect89541-4"/><path class="cls-4" d="M44.36 46.77V24a12.35 12.35 0 00-7.16-11.25l-1.39.53A12.34 12.34 0 0142 24v22.8z" id="path551413"/><path class="cls-2" d="M34 19v10.7h3.58l3.19-.15V24a8.69 8.69 0 00-3.57-7.1z" id="path89941-1-9"/><path class="cls-2" d="M40.77 46.77V36.29l-3.19-2.56H34v13l3.38 1.11z" id="path93143-4"/><path class="cls-2" d="M30 46.77v-13h-6.77v13l3.39 1.11z" id="path89945-8"/><path class="cls-2" d="M30 15.43A8.66 8.66 0 0023.23 24v5.76H30z" id="path89937-0"/><path class="cls-1" d="M39.18 28.16a1.6 1.6 0 011.6 1.6v6.35a1.6 1.6 0 01-3.2 0v-6.35a1.59 1.59 0 011.6-1.6z" id="rect91167-4"/><path class="cls-1" d="M32 11.62a12 12 0 012 .16V19a1.6 1.6 0 103.2 0v-8.44l-3.75-.66z" id="path549642"/><path class="cls-3" d="M17.34 51.38v-2.31a2.3 2.3 0 012.3-2.3h24.72a2.29 2.29 0 012.3 2.3v2.31L32.11 53z" id="path113813-2-7"/><path class="cls-2" d="M15.64 51.38h32.72a2.31 2.31 0 010 4.62H15.64a2.31 2.31 0 010-4.62z" id="rect113708-5-9"/><path class="cls-4" d="M46.66 51.38v-2.31a2.3 2.3 0 00-2.3-2.3h-2.55a2.3 2.3 0 012.31 2.3v2.31z" id="path564019"/><path d="M44.55 51.38a2.31 2.31 0 010 4.62h3.81a2.31 2.31 0 000-4.62z" id="path566347" fill="#d0e1e8"/><path d="M48.36 57c4.413 0 4.413-6.62 0-6.62h-.69v-1.31a3.3 3.3 0 00-2.31-3.13V24a13.39 13.39 0 00-2.65-8v-2a5.88 5.88 0 00-2.24-4.5 15.44 15.44 0 00-16.94 0 5.88 5.88 0 00-2.24 4.5v2c-1.726 2.31-2.417 6.512-2.411 9.396L18.64 46a3.29 3.29 0 00-2.3 3.13v1.31h-.7c-4.413 0-4.413 6.62 0 6.62zm-5-11.23h-1.59V24a9.66 9.66 0 00-3.57-7.6v-1.95A11.41 11.41 0 0143.36 24zm-8.36 0v-11h1.58v1.38a2.61 2.61 0 002.6 2.6c.199-.003.396-.026.59-.07v7.13zm0-24.22c.197.048.398.074.6.08a2.6 2.6 0 002.58-2.41A7.76 7.76 0 0139.77 24v3.26a2.88 2.88 0 00-.59-.07 2.61 2.61 0 00-2.39 1.57H35zm3.58 8.21a.59.59 0 01.6-.6.6.6 0 01.6.6v6.35a.6.6 0 01-.6.6.59.59 0 01-.6-.6zM24.63 11.2a13.44 13.44 0 0114.74 0 3.9 3.9 0 011.32 2.63 25.4 25.4 0 00-3.07-2 1 1 0 00-1.42.9V19a.6.6 0 11-1.2 0v-7.22a1 1 0 00-.84-1 14.19 14.19 0 00-2.16-.16 13.29 13.29 0 00-8.69 3.23 3.87 3.87 0 011.32-2.65zM32 12.62h1v17.11a1 1 0 001 1h2.58v2H34a1 1 0 00-1 1v12h-2v-12a1 1 0 00-1-1h-6.77a1 1 0 00-1 1v12h-1.59V24c-.006-6.28 5.08-11.374 11.36-11.38zm-7.77 33.15v-11H29v11zm-5.89 3.3a1.3 1.3 0 011.3-1.3h24.72c.72 0 1.305.58 1.31 1.3v1.31H18.34zm-4 4.62c0-.72.58-1.305 1.3-1.31h32.72c1.747 0 1.747 2.62 0 2.62H15.64a1.31 1.31 0 01-1.3-1.31z" id="path146"/><path d="M16.72 32.17a1 1 0 00.5-1.87l-.3-.18a1 1 0 00-1.37.37 1 1 0 00.37 1.36l.3.18a1 1 0 00.5.14z" id="path148"/><path d="M11.68 29.41a1 1 0 001.37-.41 1 1 0 00-.37-1.36l-.31-.18a1 1 0 00-1 1.73z" id="path150"/><path d="M11 31.66a1 1 0 001.36.37l.31-.17a1 1 0 00-1-1.74l-.3.18a1 1 0 00-.37 1.36z" id="path152"/><path d="M16.22 27.5l-.3.18a1 1 0 00-.37 1.32 1 1 0 001.37.37l.3-.18a1 1 0 10-1-1.73z" id="path154"/><path d="M13.3 32.56a1 1 0 002 0v-.35a1 1 0 00-2 0z" id="path156"/><path d="M13.3 27v.35a1 1 0 002 0V27a1 1 0 00-2 0z" id="path158"/><path d="M52.63 19.77l-.31-.17A1 1 0 0051 20a1 1 0 00.37 1.37l.3.18a1 1 0 00.5.13 1 1 0 00.87-.5 1 1 0 00-.41-1.41z" id="path160"/><path d="M47.08 18.88a1 1 0 00.5.14 1 1 0 00.5-1.87l-.3-.17a1 1 0 00-1.37.36 1 1 0 00.37 1.37z" id="path162"/><path d="M46.41 21.14a1 1 0 001.37.37l.3-.18a1 1 0 10-1-1.73l-.3.17a1 1 0 00-.37 1.37z" id="path164"/><path d="M53 17.34a1 1 0 00-1.38-.34l-.3.17a1 1 0 00.5 1.87 1 1 0 00.5-.14l.31-.17a1 1 0 00.37-1.39z" id="path166"/><path d="M49.7 23a1 1 0 001-1v-.35a1 1 0 00-1-1 1 1 0 00-1 1V22a1 1 0 001 1z" id="path168"/><path d="M49.7 17.8a1 1 0 001-1v-.35a1 1 0 00-1-1 1 1 0 00-1 1v.36a1 1 0 001 .99z" id="path170"/><circle cx="15.62" cy="15.05" r="1.25" id="circle172"/><circle cx="14.8" cy="39.82" r="1.25" id="circle174"/><circle cx="48.69" cy="36.43" r="1.25" id="circle176"/><path d="M23.23 30.73H30a1 1 0 001-1v-14.3a1 1 0 00-1.22-1A9.68 9.68 0 0022.23 24v5.76a1 1 0 001 .97zm1-6.76A7.69 7.69 0 0129 16.79v11.94h-4.77z" id="path178"/></g><path id="path496" d="M9.693 25.816a4.077 4.367 0 01-4.632 1.7 4.077 4.367 0 01-2.815-4.291 4.077 4.367 0 013.062-4.093A4.077 4.367 0 019.83 21.14l-3.51 2.221z" fill="#000" fill-rule="evenodd"/><path id="path607" d="M6.801 21.14a.96.935 0 01-1.047.839.96.935 0 01-.865-1.017.96.935 0 011.04-.846.96.935 0 01.873 1.01" fill="#fff"/></svg>