<svg xmlns="http://www.w3.org/2000/svg" viewBox="0 0 149.2 30"><linearGradient id="a" gradientUnits="userSpaceOnUse" x1="13.741" y1="49.462" x2="15.175" y2="28.145" gradientTransform="matrix(1 0 0 -1 0 56.174)"><stop offset="0" stop-color="#8ee7ca"/><stop offset="1" stop-color="#2feeaf"/></linearGradient><circle cx="14.3" cy="15.1" r="13" fill="url(#a)"/><path d="M39.5 22.2c-1 0-1.9-.2-2.6-.5-.8-.3-1.4-.8-1.8-1.4-.5-.6-.7-1.4-.7-2.2h3c0 .6.2 1 .6 1.4.4.3.9.5 1.5.5.7 0 1.2-.2 1.5-.5.4-.3.6-.7.6-1.2 0-.4-.1-.8-.4-1s-.6-.5-1-.6c-.4-.2-.9-.3-1.6-.5-.9-.3-1.6-.5-2.2-.8-.6-.3-1-.7-1.5-1.2-.4-.5-.6-1.2-.6-2.1 0-.8.2-1.5.6-2.2.4-.6 1-1.1 1.7-1.4.7-.3 1.6-.5 2.6-.5 1.4 0 2.6.4 3.5 1.1.9.7 1.4 1.7 1.5 2.9h-3.1c0-.5-.2-.9-.6-1.2-.4-.3-.9-.5-1.5-.5-.5 0-1 .1-1.3.4-.3.3-.5.7-.5 1.2 0 .4.1.7.4.9l.9.6c.4.1.9.3 1.6.5.9.3 1.6.5 2.2.8s1.1.7 1.5 1.2c.4.5.6 1.2.6 2.1 0 .7-.2 1.4-.6 2.1s-1 1.2-1.7 1.5c-.7.4-1.6.6-2.6.6zm13.9 0c-1.3 0-2.5-.3-3.6-.9-1.1-.6-2-1.5-2.6-2.5-.6-1.1-1-2.3-1-3.7 0-1.4.3-2.6 1-3.7.6-1.1 1.5-1.9 2.6-2.6 1.1-.6 2.3-.9 3.6-.9 1.3 0 2.5.3 3.6.9 1.1.6 2 1.5 2.6 2.6.6 1.1 1 2.3 1 3.7 0 1.4-.3 2.6-1 3.7-.6 1.1-1.5 1.9-2.6 2.5-1.1.6-2.3.9-3.6.9zm0-2.5c.8 0 1.6-.2 2.2-.6.6-.4 1.1-.9 1.5-1.6.4-.7.5-1.5.5-2.5 0-.9-.2-1.7-.5-2.4-.4-.7-.9-1.2-1.5-1.6-.6-.4-1.4-.6-2.2-.6-.8 0-1.6.2-2.2.6-.6.4-1.1.9-1.5 1.6-.4.7-.5 1.5-.5 2.4 0 .9.2 1.8.5 2.5.4.7.9 1.3 1.5 1.6.6.4 1.3.6 2.2.6zM71.2 8.1v2.3h-5.8V14h4.5v2.2h-4.5v5.9h-2.8v-14h8.6zm11.5 0v2.3H79v11.7h-2.8V10.4h-3.7V8.1h10.2zm17 4.3c0 .7-.2 1.4-.5 2.1-.3.7-.9 1.2-1.7 1.6-.7.4-1.7.6-2.8.6h-2.3v5.4h-2.8v-14h5.1c1.1 0 2 .2 2.8.6.8.4 1.3.9 1.7 1.5.3.7.5 1.4.5 2.2zm-5.2 2.1c.8 0 1.3-.2 1.7-.5.4-.4.6-.9.6-1.5 0-1.4-.8-2-2.3-2h-2.2v4.1h2.2zm13.6 7.7c-1.3 0-2.5-.3-3.6-.9-1.1-.6-2-1.5-2.6-2.5-.6-1.1-1-2.3-1-3.7 0-1.4.3-2.6 1-3.7.6-1.1 1.5-1.9 2.6-2.6 1.1-.6 2.3-.9 3.6-.9 1.3 0 2.5.3 3.6.9 1.1.6 2 1.5 2.6 2.6.6 1.1 1 2.3 1 3.7 0 1.4-.3 2.6-1 3.7-.6 1.1-1.5 1.9-2.6 2.5-1.1.6-2.3.9-3.6.9zm0-2.5c.8 0 1.6-.2 2.2-.6.6-.4 1.1-.9 1.5-1.6.4-.7.5-1.5.5-2.5 0-.9-.2-1.7-.5-2.4-.4-.7-.9-1.2-1.5-1.6-.6-.4-1.4-.6-2.2-.6-.8 0-1.6.2-2.2.6-.6.4-1.1.9-1.5 1.6-.4.7-.5 1.5-.5 2.4 0 .9.2 1.8.5 2.5.4.7.9 1.3 1.5 1.6.7.4 1.4.6 2.2.6zm12.1-11.6v14h-2.8v-14h2.8zm14.7 14h-2.8l-6.3-9.6v9.6H123v-14h2.8l6.3 9.6V8.1h2.8v14zm12.2-14v2.3h-3.7v11.7h-2.8V10.4h-3.7V8.1h10.2z" fill="#24dc9f"/><circle cx="14.3" cy="15.1" r="4" fill="#fff"/><circle cx="14.3" cy="15.1" r="4.5" fill="none" stroke="#f9fefc"/><path d="M47.2 21L58.4 7.9c.4-.4 1-.5 1.5-.1.4.4.5 1 .1 1.5L48.8 22.4c-.4.4-1 .5-1.5.1-.4-.4-.4-1.1-.1-1.5zm55 0l11.1-13.1c.4-.4 1-.5 1.5-.1.4.4.5 1 .1 1.5l-11.1 13.1c-.4.4-1 .5-1.5.1-.4-.4-.4-1.1-.1-1.5z" fill="#fedf8b"/></svg>