<?xml version="1.0" encoding="utf-8"?>
<!-- Generator: Adobe Illustrator 26.0.1, SVG Export Plug-In . SVG Version: 6.00 Build 0)  -->
<svg version="1.1" id="Layer_1" xmlns="http://www.w3.org/2000/svg" xmlns:xlink="http://www.w3.org/1999/xlink" x="0px" y="0px"
	 viewBox="0 0 75 75" style="enable-background:new 0 0 75 75;" xml:space="preserve">
<style type="text/css">
	.st0{fill:url(#SVGID_1_);}
	.st1{fill:#FFFFFF;}
</style>
<g>
	
		<linearGradient id="SVGID_1_" gradientUnits="userSpaceOnUse" x1="7.1383" y1="86.7821" x2="64.6383" y2="14.2821" gradientTransform="matrix(1 0 0 -1 0 86)">
		<stop  offset="0" style="stop-color:#FF9A9A"/>
		<stop  offset="1" style="stop-color:#F14C4C"/>
	</linearGradient>
	<path class="st0" d="M10,0h55c5.5,0,10,4.5,10,10v55c0,5.5-4.5,10-10,10H10C4.5,75,0,70.5,0,65V10C0,4.5,4.5,0,10,0z"/>
</g>
<path class="st1" d="M54,41.3l-3.2-2.5c0-0.4,0.1-0.8,0.1-1.3s0-0.9-0.1-1.3l3.2-2.5c0.6-0.5,0.8-1.3,0.4-2L51,25.9
	c-0.4-0.7-1.1-1-1.9-0.7l-3.8,1.5c-0.7-0.5-1.5-1-2.3-1.3l-0.6-4c-0.1-0.8-0.8-1.3-1.5-1.3h-6.7c-0.8,0-1.4,0.6-1.5,1.3l-0.6,4
	c-0.8,0.3-1.5,0.8-2.3,1.3l-3.8-1.5c-0.7-0.3-1.6,0-1.9,0.7l-3.3,5.8c-0.4,0.7-0.2,1.5,0.4,2l3.2,2.5c-0.1,0.5-0.1,0.9-0.1,1.3
	c0,0.4,0,0.8,0.1,1.3l-3.2,2.5c-0.6,0.5-0.8,1.3-0.4,2l3.3,5.8c0.4,0.7,1.1,1,1.9,0.7l3.8-1.5c0.7,0.5,1.5,1,2.3,1.3l0.6,4
	c0.1,0.8,0.8,1.3,1.5,1.3h6.7c0.8,0,1.5-0.6,1.5-1.3l0.6-4c0.8-0.3,1.5-0.8,2.3-1.3l3.8,1.5c0.2,0.1,0.4,0.1,0.6,0.1
	c0.6,0,1.1-0.3,1.3-0.8l3.4-5.8C54.7,42.7,54.6,41.8,54,41.3z M37.5,43.3c-3.2,0-5.8-2.6-5.8-5.8c0-3.2,2.6-5.8,5.8-5.8
	c3.2,0,5.8,2.6,5.8,5.8C43.3,40.7,40.7,43.3,37.5,43.3z"/>
</svg>
