<?xml version="1.0" encoding="utf-8"?>
<!-- Generator: Adobe Illustrator 26.0.1, SVG Export Plug-In . SVG Version: 6.00 Build 0)  -->
<svg version="1.1" id="Layer_1" xmlns="http://www.w3.org/2000/svg" xmlns:xlink="http://www.w3.org/1999/xlink" x="0px" y="0px"
	 viewBox="0 0 75 75" style="enable-background:new 0 0 75 75;" xml:space="preserve">
<style type="text/css">
	.st0{fill:url(#SVGID_1_);}
	.st1{clip-path:url(#SVGID_00000052792538866782209990000009996495387589841300_);}
	.st2{fill:#FFFFFF;}
</style>
<g>
	
		<linearGradient id="SVGID_1_" gradientUnits="userSpaceOnUse" x1="25.6285" y1="88.971" x2="47.6285" y2="13.971" gradientTransform="matrix(1 0 0 -1 0 86)">
		<stop  offset="0" style="stop-color:#FCD876"/>
		<stop  offset="1" style="stop-color:#FABC13"/>
	</linearGradient>
	<path shape-rendering="crispEdges" class="st0" d="M10,0h55c5.5,0,10,4.5,10,10v55c0,5.5-4.5,10-10,10H10C4.5,75,0,70.5,0,65V10
		C0,4.5,4.5,0,10,0z"/>
</g>
<g>
	<defs>
		<rect id="SVGID_00000110439779762955211210000006694304637608350363_" x="20" y="20" width="35" height="35"/>
	</defs>
	<clipPath id="SVGID_00000026122341417302522190000007795980398424693930_">
		<use xlink:href="#SVGID_00000110439779762955211210000006694304637608350363_"  style="overflow:visible;"/>
	</clipPath>
	<g style="clip-path:url(#SVGID_00000026122341417302522190000007795980398424693930_);">
		<path class="st2" d="M37.5,30.8c-3.7,0-6.7,3-6.7,6.7c0,3.7,3,6.7,6.7,6.7c3.7,0,6.7-3,6.7-6.7C44.2,33.8,41.2,30.8,37.5,30.8z
			 M41.5,36.2L36.7,41c-0.2,0.2-0.5,0.3-0.7,0.3c-0.3,0-0.5-0.1-0.7-0.3l-1.8-1.8c-0.4-0.4-0.4-1.1,0-1.5c0.4-0.4,1.1-0.4,1.5,0
			l1.1,1.1l4.1-4.1c0.4-0.4,1.1-0.4,1.5,0C41.9,35.2,41.9,35.8,41.5,36.2z"/>
		<path class="st2" d="M52.4,29.5L52.4,29.5c0-0.4,0-0.7,0-1.1c0-1.9-1.6-3.5-3.5-3.6c-4-0.2-7.1-1.5-9.8-4.1l0,0
			c-0.9-0.8-2.2-0.8-3,0l0,0c-2.7,2.6-5.8,3.9-9.8,4.1c-1.9,0.1-3.5,1.7-3.5,3.6c0,0.4,0,0.7,0,1.1l0,0.1c-0.1,4.1-0.2,9.2,1.5,13.8
			c0.9,2.5,2.4,4.8,4.2,6.6c2.1,2.1,4.9,3.7,8.3,4.9c0.1,0,0.2,0.1,0.3,0.1c0.2,0,0.3,0,0.5,0c0.2,0,0.3,0,0.5,0
			c0.1,0,0.2-0.1,0.3-0.1c3.4-1.2,6.1-2.8,8.3-4.9c1.9-1.8,3.3-4,4.2-6.6C52.5,38.7,52.4,33.6,52.4,29.5z M37.5,46.2
			c-4.8,0-8.7-3.9-8.7-8.7c0-4.8,3.9-8.7,8.7-8.7c4.8,0,8.7,3.9,8.7,8.7C46.2,42.3,42.3,46.2,37.5,46.2z"/>
	</g>
</g>
</svg>
