<?xml version="1.0" encoding="utf-8"?>
<!-- Generator: Adobe Illustrator 26.0.1, SVG Export Plug-In . SVG Version: 6.00 Build 0)  -->
<svg version="1.1" id="Layer_1" xmlns="http://www.w3.org/2000/svg" xmlns:xlink="http://www.w3.org/1999/xlink" x="0px" y="0px"
	 viewBox="0 0 75 75" style="enable-background:new 0 0 75 75;" xml:space="preserve">
<style type="text/css">
	.st0{fill:url(#SVGID_1_);}
	.st1{clip-path:url(#SVGID_00000130625176991133633250000014211982428463858834_);}
	.st2{fill:#FFFFFF;}
</style>
<g>
	
		<linearGradient id="SVGID_1_" gradientUnits="userSpaceOnUse" x1="17.6772" y1="89.582" x2="52.1772" y2="18.082" gradientTransform="matrix(1 0 0 -1 0 86)">
		<stop  offset="0" style="stop-color:#85FED6"/>
		<stop  offset="1" style="stop-color:#4EDAAC"/>
	</linearGradient>
	<path shape-rendering="crispEdges" class="st0" d="M10,0h55c5.5,0,10,4.5,10,10v55c0,5.5-4.5,10-10,10H10C4.5,75,0,70.5,0,65V10
		C0,4.5,4.5,0,10,0z"/>
</g>
<g>
	<defs>
		<rect id="SVGID_00000097485130660842844600000005004886088683349919_" x="20" y="20" width="35" height="35"/>
	</defs>
	<clipPath id="SVGID_00000004521373553646299230000014052008399646268604_">
		<use xlink:href="#SVGID_00000097485130660842844600000005004886088683349919_"  style="overflow:visible;"/>
	</clipPath>
	<g style="clip-path:url(#SVGID_00000004521373553646299230000014052008399646268604_);">
		<path class="st2" d="M37.2,36.9c2.3,0,4.3-0.8,6-2.5c1.6-1.6,2.5-3.6,2.5-6c0-2.3-0.8-4.3-2.5-6c-1.6-1.6-3.6-2.5-6-2.5
			c-2.3,0-4.3,0.8-6,2.5c-1.6,1.6-2.5,3.6-2.5,6c0,2.3,0.8,4.3,2.5,6C32.9,36,34.9,36.9,37.2,36.9z"/>
		<path class="st2" d="M52,46.9c0-0.7-0.1-1.4-0.3-2.2c-0.1-0.8-0.3-1.5-0.5-2.2c-0.2-0.7-0.5-1.4-0.9-2.1c-0.4-0.7-0.9-1.3-1.4-1.8
			c-0.5-0.5-1.2-0.9-2-1.2c-0.8-0.3-1.6-0.5-2.5-0.5c-0.4,0-0.7,0.1-1.4,0.6c-0.4,0.3-0.9,0.6-1.4,0.9c-0.5,0.3-1.1,0.6-1.8,0.8
			c-0.7,0.2-1.5,0.4-2.3,0.4c-0.8,0-1.5-0.1-2.3-0.4c-0.8-0.2-1.4-0.5-1.8-0.8c-0.5-0.3-1-0.6-1.4-0.9c-0.7-0.4-1-0.6-1.4-0.6
			c-0.9,0-1.8,0.2-2.5,0.5c-0.8,0.3-1.4,0.7-2,1.2c-0.5,0.5-1,1.1-1.4,1.8c-0.4,0.7-0.7,1.4-0.9,2.1c-0.2,0.7-0.4,1.4-0.5,2.2
			c-0.1,0.8-0.2,1.5-0.3,2.2c0,0.7-0.1,1.4-0.1,2.1c0,1.8,0.6,3.3,1.7,4.4c1.1,1.1,2.6,1.6,4.4,1.6h16.9c1.8,0,3.3-0.5,4.4-1.6
			c1.1-1.1,1.7-2.6,1.7-4.4C52.1,48.3,52,47.6,52,46.9z"/>
	</g>
</g>
</svg>
