<svg width="20" height="21" fill="none" xmlns="http://www.w3.org/2000/svg"><path d="M8.857 1.296a2 2 0 012.286 0l1.712 1.193a2 2 0 00.791.328l2.053.367A2 2 0 0117.317 4.8l.367 2.054c.051.284.163.554.328.791l1.193 1.712a2 2 0 010 2.286l-1.193 1.712a2.001 2.001 0 00-.328.791l-.367 2.053a2 2 0 01-1.616 1.617l-2.054.367a2.005 2.005 0 00-.791.328l-1.712 1.193a2 2 0 01-2.286 0L7.145 18.51a2.001 2.001 0 00-.791-.328L4.3 17.816A2 2 0 012.684 16.2l-.367-2.054a2 2 0 00-.328-.791L.796 11.643a2 2 0 010-2.286L1.99 7.645a2 2 0 00.328-.791L2.684 4.8A2 2 0 014.3 3.184l2.054-.367a2 2 0 00.791-.328l1.712-1.193z" fill="url(#paint0_linear_77_2965)"/><path d="M14.108 8.816L9.503 13.42a.874.874 0 01-1.235 0L5.89 11.043a.874.874 0 011.235-1.236l1.76 1.76 3.987-3.987a.874.874 0 011.235 1.236z" fill="#fff"/><defs><linearGradient id="paint0_linear_77_2965" x1=".8" y1="1.433" x2="10" y2="20.5" gradientUnits="userSpaceOnUse"><stop stop-color="#8BF9D5"/><stop offset="1" stop-color="#4EDAAC"/></linearGradient></defs></svg>