<svg version="1.1" id="Layer_1" xmlns="http://www.w3.org/2000/svg" xmlns:xlink="http://www.w3.org/1999/xlink" x="0" y="0" viewBox="0 0 75 75" xml:space="preserve"><style/><linearGradient id="SVGID_1_" gradientUnits="userSpaceOnUse" x1="6.503" y1="90.769" x2="61.503" y2="15.769" gradientTransform="matrix(1 0 0 -1 0 86)"><stop offset="0" stop-color="#fe9af4"/><stop offset="1" stop-color="#ec4edc"/></linearGradient><path shape-rendering="crispEdges" d="M10 0h55c5.5 0 10 4.5 10 10v55c0 5.5-4.5 10-10 10H10C4.5 75 0 70.5 0 65V10C0 4.5 4.5 0 10 0z" fill="url(#SVGID_1_)"/><defs><path id="SVGID_00000120550155330997535830000013506592414203573913_" d="M20 20h35v35H20z"/></defs><clipPath id="SVGID_00000144297987688769020180000012375968452089697948_"><use xlink:href="#SVGID_00000120550155330997535830000013506592414203573913_" overflow="visible"/></clipPath><g clip-path="url(#SVGID_00000144297987688769020180000012375968452089697948_)"><path d="M37.5 19.9l-15.2 8.8v17.5L37.5 55l15.2-8.8V28.7l-15.2-8.8zm-5.8 20.3l-1.5 1.5-4.2-4.3 4.2-4.2 1.5 1.5-2.8 2.8 2.8 2.7zm4.3 2.5l-1.8-.9 4.8-9.7 1.8.9-4.8 9.7zm8.8-1.1l-1.5-1.5 2.8-2.8-2.8-2.8 1.5-1.5 4.2 4.2-4.2 4.4z" fill="#fff"/></g></svg>