<svg xmlns="http://www.w3.org/2000/svg" viewBox="0 0 75 75"><linearGradient id="a" gradientUnits="userSpaceOnUse" x1="7.138" y1="86.782" x2="64.638" y2="14.282" gradientTransform="matrix(1 0 0 -1 0 86)"><stop offset="0" stop-color="#ff9a9a"/><stop offset="1" stop-color="#f14c4c"/></linearGradient><path d="M10 0h55c5.5 0 10 4.5 10 10v55c0 5.5-4.5 10-10 10H10C4.5 75 0 70.5 0 65V10C0 4.5 4.5 0 10 0z" fill="url(#a)"/><path d="M54 41.3l-3.2-2.5c0-.4.1-.8.1-1.3s0-.9-.1-1.3l3.2-2.5c.6-.5.8-1.3.4-2L51 25.9c-.4-.7-1.1-1-1.9-.7l-3.8 1.5c-.7-.5-1.5-1-2.3-1.3l-.6-4c-.1-.8-.8-1.3-1.5-1.3h-6.7c-.8 0-1.4.6-1.5 1.3l-.6 4c-.8.3-1.5.8-2.3 1.3L26 25.2c-.7-.3-1.6 0-1.9.7l-3.3 5.8c-.4.7-.2 1.5.4 2l3.2 2.5c-.1.5-.1.9-.1 1.3s0 .8.1 1.3l-3.2 2.5c-.6.5-.8 1.3-.4 2l3.3 5.8c.4.7 1.1 1 1.9.7l3.8-1.5c.7.5 1.5 1 2.3 1.3l.6 4c.1.8.8 1.3 1.5 1.3h6.7c.8 0 1.5-.6 1.5-1.3l.6-4c.8-.3 1.5-.8 2.3-1.3l3.8 1.5c.2.1.4.1.6.1.6 0 1.1-.3 1.3-.8l3.4-5.8c.3-.6.2-1.5-.4-2zm-16.5 2c-3.2 0-5.8-2.6-5.8-5.8 0-3.2 2.6-5.8 5.8-5.8 3.2 0 5.8 2.6 5.8 5.8 0 3.2-2.6 5.8-5.8 5.8z" fill="#fff"/></svg>