<svg version="1.1" id="Layer_1" xmlns="http://www.w3.org/2000/svg" xmlns:xlink="http://www.w3.org/1999/xlink" x="0" y="0" viewBox="0 0 75 75" xml:space="preserve"><style>.st2{fill:#fff}</style><linearGradient id="SVGID_1_" gradientUnits="userSpaceOnUse" x1="25.628" y1="88.971" x2="47.629" y2="13.971" gradientTransform="matrix(1 0 0 -1 0 86)"><stop offset="0" stop-color="#fcd876"/><stop offset="1" stop-color="#fabc13"/></linearGradient><path shape-rendering="crispEdges" d="M10 0h55c5.5 0 10 4.5 10 10v55c0 5.5-4.5 10-10 10H10C4.5 75 0 70.5 0 65V10C0 4.5 4.5 0 10 0z" fill="url(#SVGID_1_)"/><defs><path id="SVGID_00000110439779762955211210000006694304637608350363_" d="M20 20h35v35H20z"/></defs><clipPath id="SVGID_00000026122341417302522190000007795980398424693930_"><use xlink:href="#SVGID_00000110439779762955211210000006694304637608350363_" overflow="visible"/></clipPath><g clip-path="url(#SVGID_00000026122341417302522190000007795980398424693930_)"><path class="st2" d="M37.5 30.8a6.7 6.7 0 100 13.4 6.7 6.7 0 000-13.4zm4 5.4L36.7 41c-.2.2-.5.3-.7.3-.3 0-.5-.1-.7-.3l-1.8-1.8c-.4-.4-.4-1.1 0-1.5.4-.4 1.1-.4 1.5 0l1.1 1.1 4.1-4.1c.4-.4 1.1-.4 1.5 0 .2.5.2 1.1-.2 1.5z"/><path class="st2" d="M52.4 29.5v-1.1c0-1.9-1.6-3.5-3.5-3.6-4-.2-7.1-1.5-9.8-4.1-.9-.8-2.2-.8-3 0-2.7 2.6-5.8 3.9-9.8 4.1-1.9.1-3.5 1.7-3.5 3.6v1.2c-.1 4.1-.2 9.2 1.5 13.8.9 2.5 2.4 4.8 4.2 6.6 2.1 2.1 4.9 3.7 8.3 4.9.1 0 .2.1.3.1h1c.1 0 .2-.1.3-.1 3.4-1.2 6.1-2.8 8.3-4.9 1.9-1.8 3.3-4 4.2-6.6 1.6-4.7 1.5-9.8 1.5-13.9zM37.5 46.2c-4.8 0-8.7-3.9-8.7-8.7 0-4.8 3.9-8.7 8.7-8.7 4.8 0 8.7 3.9 8.7 8.7 0 4.8-3.9 8.7-8.7 8.7z"/></g></svg>