<svg version="1.1" id="Layer_1" xmlns="http://www.w3.org/2000/svg" xmlns:xlink="http://www.w3.org/1999/xlink" x="0" y="0" viewBox="0 0 75 75" xml:space="preserve"><style>.st2{fill:#fff}</style><linearGradient id="SVGID_1_" gradientUnits="userSpaceOnUse" x1="17.677" y1="89.582" x2="52.177" y2="18.082" gradientTransform="matrix(1 0 0 -1 0 86)"><stop offset="0" stop-color="#85fed6"/><stop offset="1" stop-color="#4edaac"/></linearGradient><path shape-rendering="crispEdges" d="M10 0h55c5.5 0 10 4.5 10 10v55c0 5.5-4.5 10-10 10H10C4.5 75 0 70.5 0 65V10C0 4.5 4.5 0 10 0z" fill="url(#SVGID_1_)"/><defs><path id="SVGID_00000097485130660842844600000005004886088683349919_" d="M20 20h35v35H20z"/></defs><clipPath id="SVGID_00000004521373553646299230000014052008399646268604_"><use xlink:href="#SVGID_00000097485130660842844600000005004886088683349919_" overflow="visible"/></clipPath><g clip-path="url(#SVGID_00000004521373553646299230000014052008399646268604_)"><path class="st2" d="M37.2 36.9c2.3 0 4.3-.8 6-2.5 1.6-1.6 2.5-3.6 2.5-6 0-2.3-.8-4.3-2.5-6-1.6-1.6-3.6-2.5-6-2.5-2.3 0-4.3.8-6 2.5-1.6 1.6-2.5 3.6-2.5 6 0 2.3.8 4.3 2.5 6 1.7 1.6 3.7 2.5 6 2.5z"/><path class="st2" d="M52 46.9c0-.7-.1-1.4-.3-2.2-.1-.8-.3-1.5-.5-2.2-.2-.7-.5-1.4-.9-2.1-.4-.7-.9-1.3-1.4-1.8-.5-.5-1.2-.9-2-1.2-.8-.3-1.6-.5-2.5-.5-.4 0-.7.1-1.4.6-.4.3-.9.6-1.4.9-.5.3-1.1.6-1.8.8-.7.2-1.5.4-2.3.4-.8 0-1.5-.1-2.3-.4-.8-.2-1.4-.5-1.8-.8-.5-.3-1-.6-1.4-.9-.7-.4-1-.6-1.4-.6-.9 0-1.8.2-2.5.5-.8.3-1.4.7-2 1.2-.5.5-1 1.1-1.4 1.8-.4.7-.7 1.4-.9 2.1-.2.7-.4 1.4-.5 2.2-.1.8-.2 1.5-.3 2.2 0 .7-.1 1.4-.1 2.1 0 1.8.6 3.3 1.7 4.4 1.1 1.1 2.6 1.6 4.4 1.6h16.9c1.8 0 3.3-.5 4.4-1.6 1.1-1.1 1.7-2.6 1.7-4.4.1-.7 0-1.4 0-2.1z"/></g></svg>