<?xml version="1.0" encoding="utf-8"?>
<!-- Generator: Adobe Illustrator 26.0.1, SVG Export Plug-In . SVG Version: 6.00 Build 0)  -->
<svg version="1.1" id="Layer_1" xmlns="http://www.w3.org/2000/svg" xmlns:xlink="http://www.w3.org/1999/xlink" x="0px" y="0px"
	 viewBox="0 0 100 100" style="enable-background:new 0 0 100 100;" xml:space="preserve">
<style type="text/css">
	.st0{fill:#FFFFFF;}
	.st1{fill:#35D87A;}
</style>
<g>
	<path class="st0" d="M89,47.6c0,18.7-15.2,33.9-33.9,33.9S21.1,66.3,21.1,47.6s15.2-33.9,33.9-33.9C69,13.7,80.9,22,86.1,34
		C88,38.1,89,42.7,89,47.6z"/>
	<path class="st1" d="M92.1,47.6c0.2,27.7-26.9,49-54.1,41.2C20,83.9,7,66.2,7.2,47.6c0-32.7,34.9-53.4,63.2-37.2
		C83.6,17.8,92.2,32.5,92.1,47.6L92.1,47.6z M85.9,47.6C86,31.3,71,18.6,55.1,22.2c-21.9,5.1-27.1,34-8.9,46.9
		C63.2,80.9,85.9,68.2,85.9,47.6L85.9,47.6z"/>
</g>
</svg>
