<?xml version="1.0" encoding="utf-8"?>
<!-- Generator: Adobe Illustrator 26.0.1, SVG Export Plug-In . SVG Version: 6.00 Build 0)  -->
<svg version="1.1" id="Layer_1" xmlns="http://www.w3.org/2000/svg" xmlns:xlink="http://www.w3.org/1999/xlink" x="0px" y="0px"
	 viewBox="0 0 149.2 30" style="enable-background:new 0 0 149.2 30;" xml:space="preserve">
<style type="text/css">
	.st0{fill:url(#SVGID_1_);}
	.st1{fill:#24DC9F;}
	.st2{fill:#FFFFFF;}
	.st3{fill:none;stroke:#F9FEFC;}
	.st4{fill:#FEDF8B;}
</style>
<g>
	
		<linearGradient id="SVGID_1_" gradientUnits="userSpaceOnUse" x1="13.741" y1="49.4617" x2="15.1748" y2="28.1455" gradientTransform="matrix(1 0 0 -1 0 56.1739)">
		<stop  offset="0" style="stop-color:#8EE7CA"/>
		<stop  offset="1" style="stop-color:#2FEEAF"/>
	</linearGradient>
	<circle class="st0" cx="14.3" cy="15.1" r="13"/>
</g>
<g>
	<path class="st1" d="M39.5,22.2c-1,0-1.9-0.2-2.6-0.5c-0.8-0.3-1.4-0.8-1.8-1.4c-0.5-0.6-0.7-1.4-0.7-2.2h3c0,0.6,0.2,1,0.6,1.4
		c0.4,0.3,0.9,0.5,1.5,0.5c0.7,0,1.2-0.2,1.5-0.5c0.4-0.3,0.6-0.7,0.6-1.2c0-0.4-0.1-0.8-0.4-1s-0.6-0.5-1-0.6
		c-0.4-0.2-0.9-0.3-1.6-0.5c-0.9-0.3-1.6-0.5-2.2-0.8c-0.6-0.3-1-0.7-1.5-1.2c-0.4-0.5-0.6-1.2-0.6-2.1c0-0.8,0.2-1.5,0.6-2.2
		c0.4-0.6,1-1.1,1.7-1.4c0.7-0.3,1.6-0.5,2.6-0.5c1.4,0,2.6,0.4,3.5,1.1c0.9,0.7,1.4,1.7,1.5,2.9h-3.1c0-0.5-0.2-0.9-0.6-1.2
		c-0.4-0.3-0.9-0.5-1.5-0.5c-0.5,0-1,0.1-1.3,0.4c-0.3,0.3-0.5,0.7-0.5,1.2c0,0.4,0.1,0.7,0.4,0.9c0.3,0.2,0.6,0.4,0.9,0.6
		c0.4,0.1,0.9,0.3,1.6,0.5c0.9,0.3,1.6,0.5,2.2,0.8s1.1,0.7,1.5,1.2c0.4,0.5,0.6,1.2,0.6,2.1c0,0.7-0.2,1.4-0.6,2.1s-1,1.2-1.7,1.5
		C41.4,22,40.5,22.2,39.5,22.2z M53.4,22.2c-1.3,0-2.5-0.3-3.6-0.9c-1.1-0.6-2-1.5-2.6-2.5c-0.6-1.1-1-2.3-1-3.7
		c0-1.4,0.3-2.6,1-3.7c0.6-1.1,1.5-1.9,2.6-2.6c1.1-0.6,2.3-0.9,3.6-0.9c1.3,0,2.5,0.3,3.6,0.9c1.1,0.6,2,1.5,2.6,2.6
		c0.6,1.1,1,2.3,1,3.7c0,1.4-0.3,2.6-1,3.7c-0.6,1.1-1.5,1.9-2.6,2.5C55.9,21.9,54.7,22.2,53.4,22.2z M53.4,19.7
		c0.8,0,1.6-0.2,2.2-0.6c0.6-0.4,1.1-0.9,1.5-1.6c0.4-0.7,0.5-1.5,0.5-2.5c0-0.9-0.2-1.7-0.5-2.4c-0.4-0.7-0.9-1.2-1.5-1.6
		c-0.6-0.4-1.4-0.6-2.2-0.6c-0.8,0-1.6,0.2-2.2,0.6c-0.6,0.4-1.1,0.9-1.5,1.6c-0.4,0.7-0.5,1.5-0.5,2.4c0,0.9,0.2,1.8,0.5,2.5
		c0.4,0.7,0.9,1.3,1.5,1.6C51.8,19.5,52.5,19.7,53.4,19.7z M71.2,8.1v2.3h-5.8V14h4.5v2.2h-4.5v5.9h-2.8v-14H71.2z M82.7,8.1v2.3H79
		v11.7h-2.8V10.4h-3.7V8.1H82.7z M99.7,12.4c0,0.7-0.2,1.4-0.5,2.1c-0.3,0.7-0.9,1.2-1.7,1.6c-0.7,0.4-1.7,0.6-2.8,0.6h-2.3v5.4
		h-2.8v-14h5.1c1.1,0,2,0.2,2.8,0.6c0.8,0.4,1.3,0.9,1.7,1.5C99.5,10.9,99.7,11.6,99.7,12.4z M94.5,14.5c0.8,0,1.3-0.2,1.7-0.5
		c0.4-0.4,0.6-0.9,0.6-1.5c0-1.4-0.8-2-2.3-2h-2.2v4.1H94.5z M108.1,22.2c-1.3,0-2.5-0.3-3.6-0.9c-1.1-0.6-2-1.5-2.6-2.5
		c-0.6-1.1-1-2.3-1-3.7c0-1.4,0.3-2.6,1-3.7c0.6-1.1,1.5-1.9,2.6-2.6c1.1-0.6,2.3-0.9,3.6-0.9c1.3,0,2.5,0.3,3.6,0.9
		c1.1,0.6,2,1.5,2.6,2.6c0.6,1.1,1,2.3,1,3.7c0,1.4-0.3,2.6-1,3.7c-0.6,1.1-1.5,1.9-2.6,2.5C110.6,21.9,109.4,22.2,108.1,22.2z
		 M108.1,19.7c0.8,0,1.6-0.2,2.2-0.6c0.6-0.4,1.1-0.9,1.5-1.6c0.4-0.7,0.5-1.5,0.5-2.5c0-0.9-0.2-1.7-0.5-2.4
		c-0.4-0.7-0.9-1.2-1.5-1.6c-0.6-0.4-1.4-0.6-2.2-0.6c-0.8,0-1.6,0.2-2.2,0.6c-0.6,0.4-1.1,0.9-1.5,1.6c-0.4,0.7-0.5,1.5-0.5,2.4
		c0,0.9,0.2,1.8,0.5,2.5c0.4,0.7,0.9,1.3,1.5,1.6C106.6,19.5,107.3,19.7,108.1,19.7z M120.2,8.1v14h-2.8v-14H120.2z M134.9,22.1
		h-2.8l-6.3-9.6v9.6h-2.8v-14h2.8l6.3,9.6V8.1h2.8V22.1z M147.1,8.1v2.3h-3.7v11.7h-2.8V10.4h-3.7V8.1H147.1z"/>
</g>
<g>
	<circle class="st2" cx="14.3" cy="15.1" r="4"/>
	<circle class="st3" cx="14.3" cy="15.1" r="4.5"/>
</g>
<g>
	<path class="st4" d="M47.2,21L58.4,7.9c0.4-0.4,1-0.5,1.5-0.1l0,0c0.4,0.4,0.5,1,0.1,1.5L48.8,22.4c-0.4,0.4-1,0.5-1.5,0.1l0,0
		C46.9,22.1,46.9,21.4,47.2,21z"/>
</g>
<g>
	<path class="st4" d="M102.2,21l11.1-13.1c0.4-0.4,1-0.5,1.5-0.1l0,0c0.4,0.4,0.5,1,0.1,1.5l-11.1,13.1c-0.4,0.4-1,0.5-1.5,0.1l0,0
		C101.9,22.1,101.9,21.4,102.2,21z"/>
</g>
</svg>
